<svg xmlns="http://www.w3.org/2000/svg"><g class="cls-2"><polygon class="cls-3" points="2.98 7.71 11.43 7.71 11.43 0.02 14.41 0.02 14.41 19.67 11.43 19.67 11.43 10.51 2.98 10.51 2.98 19.67 0 19.67 0 0.02 2.98 0.02 2.98 7.71"/><path class="cls-3" d="M658.43,371.33h2.89v12.4h-2.89v-1.3a5,5,0,0,1-3.8,1.68c-3.42,0-5.93-2.8-5.93-6.63s2.51-6.48,5.87-6.48a4.81,4.81,0,0,1,3.86,1.77Zm-6.78,6.24c0,2.3,1.45,3.95,3.45,3.95s3.51-1.62,3.51-3.95-1.45-4-3.51-4-3.45,1.67-3.45,4" transform="translate(-633 -364.06)"/><path class="cls-3" d="M690.24,377.54a6.62,6.62,0,1,1,6.63,6.57,6.51,6.51,0,0,1-6.63-6.57m3,0c0,2.39,1.44,3.95,3.68,3.95a3.61,3.61,0,0,0,3.69-3.95c0-2.41-1.48-4-3.69-4s-3.68,1.59-3.68,4" transform="translate(-633 -364.06)"/><polygon class="cls-3" points="85.22 9.95 85.22 19.67 82.33 19.67 82.33 9.95 81.13 9.95 81.13 7.27 82.33 7.27 82.33 2.73 85.22 2.73 85.22 7.27 87.43 7.27 87.43 9.95 85.22 9.95"/><path class="cls-3" d="M722.33,364.06h2.89v8.33a4.44,4.44,0,0,1,3.36-1.39,4.53,4.53,0,0,1,3.62,1.68,5.48,5.48,0,0,1,.8,3.45v7.6h-2.86v-7.34c0-1.94-.68-2.82-2.18-2.82-2.06,0-2.74,1.06-2.74,4.18v6h-2.89Z" transform="translate(-633 -364.06)"/><path class="cls-3" d="M705.1,371.33H708v1.12a3.35,3.35,0,0,1,2.86-1.45,3.66,3.66,0,0,1,1.46.33V374a3.51,3.51,0,0,0-1.48-.4c-1-.08-2.88.41-2.84,3.7v6.42H705.1Z" transform="translate(-633 -364.06)"/><path class="cls-3" d="M663.38,371.33h2.89v1.12a3.35,3.35,0,0,1,2.86-1.45,3.62,3.62,0,0,1,1.45.33V374a3.43,3.43,0,0,0-1.48-.4c-1-.08-2.87.41-2.83,3.7v6.42h-2.89Z" transform="translate(-633 -364.06)"/><polygon class="cls-3" points="41.51 7.27 44.75 14.38 47.78 7.28 48.74 7.28 51.76 14.38 54.98 7.27 58.19 7.27 52.17 19.67 51.3 19.67 48.26 12.64 45.19 19.67 44.32 19.67 38.3 7.27 41.51 7.27"/></g></svg>